<svg xmlns="http://www.w3.org/2000/svg" xmlns:xlink="http://www.w3.org/1999/xlink" version="1.1" width="1000" height="1000" viewBox="0 0 1000 1000" xml:space="preserve">
<desc>Created with Fabric.js 3.5.0</desc>
<defs>
</defs>
<rect x="0" y="0" width="100%" height="100%" fill="#ffffff"/>
<g transform="matrix(9.8506 0 0 10.066 488.7315 500.495)" id="802663">
<g style="" vector-effect="non-scaling-stroke">
		<g transform="matrix(0.2447 0 0 0.2447 -31.8533 3.4)" id="path6">
<linearGradient id="SVGID_4" gradientUnits="objectBoundingBox" gradientTransform="matrix(1 0 0 1 50.1318 50.4926)" x1="0" y1="0" x2="1" y2="0">
<stop offset="0%" style="stop-color:rgb(239,65,54);stop-opacity: 1"/>
<stop offset="100%" style="stop-color:rgb(251,176,64);stop-opacity: 1"/>
</linearGradient>
<path style="stroke: none; stroke-width: 1; stroke-dasharray: none; stroke-linecap: butt; stroke-dashoffset: 0; stroke-linejoin: miter; stroke-miterlimit: 4; is-custom-font: none; font-file-url: none; fill: url(#SVGID_4); fill-rule: nonzero; opacity: 1;" transform=" translate(-50.1318, -50.4926)" d="m 59.5 3.082 c -4.7954 0 -8.6018 4.1599 -8.7461 9.1934 a 1.2501 1.2501 0 0 0 -0.009765 0.16016 v 0.050781 v 0.001953 c -0.000212 0.026968 -0.003907 0.053064 -0.003907 0.080078 a 1.2501 1.2501 0 0 0 0.003907 0.125 l -0.011719 6.0625 a 1.2501 1.2501 0 0 0 0.027344 0.26953 a 1.2501 1.2501 0 0 0 0 0.005859 c 0.087637 2.7858 1.0895 5.3422 2.709 7.3086 c -1.6974 2.0334 -2.7228 4.7069 -2.7539 7.625 a 1.2501 1.2501 0 0 0 -0.011719 0.17969 l -0.041016 21.643 a 1.2501 1.2501 0 0 0 0 0.007813 c -0.000034 0.002635 0.000033 0.005177 0 0.007812 v 0.16406 a 1.2501 1.2501 0 0 0 0.017579 0.21484 a 1.2501 1.2501 0 0 0 0 0.007812 c 0.057898 3.2162 1.3128 6.1365 3.3555 8.2129 c -2.1126 2.1347 -3.3999 5.1769 -3.3984 8.4844 v 0.001953 a 1.2501 1.2501 0 0 0 -0.00586 0.12109 l -0.029297 15.393 a 1.2501 1.2501 0 0 0 0 0.013672 c 0 0.001972 -0.000001 0.003887 0 0.005859 v 0.15625 a 1.2501 1.2501 0 0 0 0.017579 0.22461 c 0.18879 4.9911 3.9767 9.0996 8.7422 9.0996 c 2.987 0 5.5892 -1.6178 7.166 -4.0508 c 0.49243 0.23417 0.9998 0.44246 1.5371 0.5918 c 5.3933 1.499 10.865 -2.1252 12.193 -7.873 c 0.053852 -0.23304 0.089647 -0.46595 0.12891 -0.69922 c 4.8266 1.8209 10.372 -0.26462 13.033 -5.1699 c 2.1169 -3.9026 1.9514 -8.5589 -0.076172 -12.191 c 1.3914 -1.2473 2.581 -2.8037 3.4707 -4.6309 c 3.3427 -6.8652 1.4167 -15.253 -4.334 -19.629 c 0.70633 -1.5495 1.1191 -3.2793 1.1191 -5.1152 c 0 -5.6542 -3.7885 -10.445 -8.8418 -11.391 c 2.1119 -5.4422 0.60659 -11.91 -4.0059 -15.543 c -2.6745 -2.1063 -5.9142 -2.8138 -8.9609 -2.2676 c -1.2602 0.22595 -2.4824 0.67769 -3.623 1.3223 c -0.59124 -4.5628 -4.2009 -8.1738 -8.668 -8.1738 z m -10.766 0.017578 a 47.453 47.453 0 0 0 -8.9395 0.92773 l 0.005859 0.0039062 l 0.001953 0.0019531 a 9.2641 9.2641 0 0 1 0.11133 0.23828 l 0.025391 0.0625 a 9.2641 9.2641 0 0 1 -4.9727 12.109 a 9.2641 9.2641 0 0 1 -12.115 -4.9512 a 9.2641 9.2641 0 0 1 -0.12109 -0.32813 a 47.453 47.453 0 0 0 -12.898 12.963 a 9.2641 9.2641 0 0 1 4.4355 4.6738 l 0.027344 0.064453 a 9.2641 9.2641 0 0 1 -4.9727 12.107 a 9.2641 9.2641 0 0 1 -6.5742 0.21289 a 47.453 47.453 0 0 0 -0.013672 18.713 a 9.2641 9.2641 0 0 1 0.29492 -0.13867 a 9.2641 9.2641 0 0 1 12.133 4.9062 l 0.027344 0.064453 a 9.2641 9.2641 0 0 1 -4.9727 12.105 a 9.2641 9.2641 0 0 1 -0.36328 0.13086 a 47.453 47.453 0 0 0 13.203 13.094 a 9.2641 9.2641 0 0 1 4.8867 -4.8418 a 9.2641 9.2641 0 0 1 12.135 4.9062 l 0.027344 0.064453 a 9.2641 9.2641 0 0 1 0.089843 6.8691 a 47.453 47.453 0 0 0 8.5391 0.82617 v -27.98 a 19.424 19.424 0 0 1 -17.408 -11.857 a 19.424 19.424 0 0 1 10.332 -25.426 a 19.424 19.424 0 0 1 7.0762 -1.5098 v -28.012 z m 10.766 2.4824 c 3.4072 0 6.2617 3.053 6.2617 6.9863 a 1.2501 1.2501 0 0 0 0.068359 0.42188 c -0.67761 0.64432 -1.3023 1.3704 -1.8438 2.1973 a 1.2501 1.2501 0 1 0 2.0918 1.3691 c 3.0922 -4.7225 8.867 -5.7476 13.127 -2.3926 c 4.26 3.3551 5.2719 10.002 2.1797 14.725 c -1.7581 2.685 -4.3992 4.1445 -7.1191 4.3145 c -0.27291 0.017055 -0.54662 0.005076 -0.82031 -0.003906 c -0.062252 -2.9053 -1.1925 -5.7721 -3.3672 -7.8633 c 1.2273 -1.8688 1.9613 -4.1383 1.9844 -6.5801 a 1.2501 1.2501 0 1 0 -2.5 -0.02539 c -0.04812 5.0843 -3.7875 9.0274 -8.2441 8.9766 c -4.4567 -0.05072 -8.1262 -4.0817 -8.0781 -9.166 a 1.2501 1.2501 0 0 0 -0.003906 -0.125 a 1.2501 1.2501 0 0 0 -0.003906 -0.025391 l 0.009766 -5.293 l 0.001953 -0.61328 c 0.040801 -3.8921 2.8733 -6.9023 6.2559 -6.9023 z m 8.9727 21.689 c 3.0118 3.0375 3.31 8.2896 0.59375 11.713 c -0.21591 0.27211 -0.44244 0.52386 -0.67969 0.75586 c -0.10769 0.1053 -0.22439 0.19194 -0.33594 0.28906 c -0.086855 -0.12389 -0.16615 -0.25328 -0.25781 -0.37305 c -1.634 -2.1351 -4.022 -3.6007 -6.7988 -3.8711 a 1.2501 1.2501 0 0 0 -0.12305 -0.007812 a 1.2501 1.2501 0 0 0 -0.11914 2.4961 c 4.0811 0.39739 7.2021 4.4018 6.8242 9.0703 c -0.0591 0.72993 -0.20041 1.4268 -0.41211 2.082 a 1.2501 1.2501 0 1 0 2.3789 0.76758 c 0.2711 -0.83907 0.45073 -1.7263 0.52539 -2.6484 c 0.15063 -1.8607 -0.14637 -3.6635 -0.79492 -5.2773 c 0.63285 -0.49362 1.2236 -1.0671 1.75 -1.7305 c 1.1421 -1.4394 1.8757 -3.1061 2.2148 -4.8359 c 2.9143 0.12748 5.8217 -0.90486 8.1113 -2.957 c 0.19783 -0.17731 0.38991 -0.36236 0.57812 -0.55469 c 0.56465 -0.57699 1.0849 -1.2211 1.5488 -1.9297 c 0.034627 -0.052882 0.061903 -0.10887 0.095704 -0.16211 c 4.1677 0.35822 7.5273 4.1967 7.5273 9.0371 c 0 1.307 -0.24752 2.5439 -0.69141 3.6602 c -0.017191 0.043229 -0.040819 0.082136 -0.058594 0.125 c -1.5001 -0.76234 -3.0712 -1.2304 -4.6504 -1.3867 c -1.5298 -0.15143 -3.0592 -0.013706 -4.5293 0.36719 c -0.47561 -1.3299 -1.3718 -2.4987 -2.6387 -3.2598 a 1.2501 1.2501 0 0 0 -0.71484 -0.18555 a 1.2501 1.2501 0 0 0 -0.57226 2.3281 c 1.6485 0.9904 2.3201 3.4028 1.3711 5.3027 c -0.14842 0.29716 -0.3239 0.56032 -0.51953 0.78906 a 1.2501 1.2501 0 1 0 1.9004 1.623 c 0.32995 -0.38581 0.61759 -0.81864 0.85547 -1.2949 c 0.44872 -0.89837 0.67358 -1.8621 0.70313 -2.8184 c 2.6822 -0.76622 5.597 -0.48962 8.2539 1.0664 c 5.6123 3.2869 7.8014 11.083 4.7578 17.334 c -1.5086 3.0983 -3.9802 5.1965 -6.7539 6.1426 c -1.2483 0.42579 -2.4849 0.31192 -3.8145 -0.38281 s -2.7206 -2.0138 -3.9766 -3.9766 a 1.2501 1.2501 0 0 0 -0.019531 -0.029297 c 1.7522 -1.3864 2.9222 -3.5826 3.0254 -6.0586 a 1.2501 1.2501 0 0 0 -1.2148 -1.3184 a 1.2501 1.2501 0 0 0 -1.2832 1.2148 c -0.12845 3.0812 -2.4391 5.3233 -5.0703 5.1914 c -0.41125 -0.02064 -0.80548 -0.09809 -1.1816 -0.22461 a 1.2507 1.2507 0 1 0 -0.79688 2.3711 c 0.588 0.19777 1.2107 0.31734 1.8535 0.34961 c 0.86599 0.043403 1.6969 -0.084848 2.4766 -0.3418 a 1.2501 1.2501 0 0 0 0.10547 0.19336 c 1.4302 2.2349 3.0888 3.8869 4.9238 4.8457 c 1.835 0.95884 3.8784 1.1816 5.7793 0.5332 c 0.93235 -0.31802 1.8283 -0.75112 2.6816 -1.2734 c 1.4592 2.8421 1.5563 6.4733 -0.078125 9.4863 c -2.2679 4.1809 -6.834 5.6463 -10.688 3.707 c -0.27143 -4.508 -3.128 -8.5442 -7.4258 -9.7754 c 0.33942 -2.0744 -0.08175 -4.2857 -1.3359 -6.1172 a 1.2501 1.2501 0 0 0 -1.0625 -0.55859 a 1.2501 1.2501 0 0 0 -1.2168 1.4297 a 1.2501 1.2501 0 0 0 0.023437 0.12305 a 1.2501 1.2501 0 0 0 0.19141 0.41797 c 1.6558 2.418 1.1868 5.9276 -0.97852 7.7109 c -0.33865 0.27891 -0.69368 0.49861 -1.0586 0.66406 a 1.2501 1.2501 0 1 0 1.0312 2.2754 c 0.56705 -0.2571 1.1121 -0.59378 1.6172 -1.0098 c 0.86752 -0.71452 1.5403 -1.5927 2.0234 -2.5586 a 1.2501 1.2501 0 0 0 0.023438 0.007813 c 3.9829 1.107 6.5011 5.6483 5.4531 10.184 c -0.78599 3.4014 -3.2629 5.7129 -6.1328 6.1895 c -0.23916 0.039714 -0.48075 0.068246 -0.72461 0.082031 c -0.48771 0.02757 -0.98493 0.001255 -1.4824 -0.080078 c -0.24874 -0.040667 -0.49716 -0.094874 -0.74609 -0.16406 c -0.3951 -0.10981 -0.76794 -0.26313 -1.1309 -0.43555 c 0.33133 -1.0002 0.51953 -2.0701 0.51953 -3.1836 a 1.2501 1.2501 0 0 0 -2.498 -0.087891 a 1.2501 1.2501 0 0 0 -0.001953 0.087891 c 0 3.6875 -2.5098 6.6014 -5.6309 6.9512 c -0.20807 0.02332 -0.41791 0.035156 -0.63086 0.035156 c -3.4055 0 -6.2569 -3.05 -6.2598 -6.9805 c -0.000001 -0.001978 0 -0.003881 0 -0.005859 l 0.029297 -14.947 a 1.2502 1.2502 0 0 0 0.001953 -0.1543 c -0.21569 -4.9996 3.2118 -9.1249 7.5664 -9.4727 c 0.47724 1.2923 1.27 2.4714 2.3789 3.3848 c 0.50509 0.41599 1.0482 0.75462 1.6152 1.0117 a 1.2501 1.2501 0 1 0 1.0312 -2.2773 c -0.36489 -0.16544 -0.71994 -0.38515 -1.0586 -0.66406 c -2.1653 -1.7834 -2.6343 -5.2929 -0.97852 -7.7109 a 1.2501 1.2501 0 0 0 -1.041 -1.9707 a 1.2501 1.2501 0 0 0 -1.0215 0.55859 c -1.0728 1.5666 -1.5368 3.4117 -1.4375 5.2109 c -1.5174 0.16902 -2.9282 0.67354 -4.1758 1.4473 c -1.7559 -1.6797 -2.8867 -4.186 -2.8496 -7.0039 l 0.019532 -10.695 l 0.021484 -10.838 a 1.2501 1.2501 0 0 0 0.001953 -0.09961 c -0.02238 -2.3545 0.76481 -4.4926 2.0527 -6.1074 c 1.701 1.3079 3.7733 2.0934 6.0312 2.1191 c 2.7709 0.031636 5.2801 -1.0945 7.1836 -2.9355 z" stroke-linecap="round"/>
</g>
		<g transform="matrix(1.2235 0 0 1.2235 15.4411 2.8727)" id="path9">
<path style="stroke: none; stroke-width: 1; stroke-dasharray: none; stroke-linecap: butt; stroke-dashoffset: 0; stroke-linejoin: miter; stroke-miterlimit: 4; is-custom-font: none; font-file-url: none; fill: rgb(36,179,209); fill-rule: nonzero; opacity: 1;" transform=" translate(-24.7401, -12.86)" d="M 3.94 13.620000000000001 c -0.42666 -0.17334 -0.82332 -0.36666 -1.19 -0.58 s -0.68332 -0.47 -0.94998 -0.77 s -0.47332 -0.65334 -0.61998 -1.06 s -0.22 -0.89 -0.22 -1.45 c 0 -0.69334 0.12 -1.3033 0.36 -1.83 s 0.57666 -0.97 1.01 -1.33 s 0.95668 -0.63334 1.57 -0.82 s 1.2933 -0.28 2.04 -0.28 c 0.61334 0 1.24 0.06334 1.88 0.19 s 1.4067 0.34332 2.3 0.64998 l -1.36 2.44 c -0.86666 -0.41334 -1.78 -0.62 -2.74 -0.62 c -0.18666 0 -0.38 0.02 -0.58 0.06 s -0.38 0.11 -0.54 0.21 s -0.29334 0.23666 -0.4 0.41 s -0.16 0.4 -0.16 0.68 c 0 0.22666 0.04334 0.41332 0.13 0.55998 s 0.19666 0.27332 0.33 0.37998 s 0.28668 0.19666 0.46002 0.27 s 0.34668 0.14334 0.52002 0.21 l 1.18 0.46 c 0.50666 0.2 0.97 0.41 1.39 0.63 s 0.77666 0.48666 1.07 0.8 s 0.52 0.69668 0.68 1.15 s 0.24 1.02 0.24 1.7 s -0.12334 1.3 -0.37 1.86 s -0.60666 1.0367 -1.08 1.43 s -1.0567 0.7 -1.75 0.92 s -1.4867 0.33 -2.38 0.33 c -0.41334 0 -0.79334 -0.01334 -1.14 -0.04 s -0.68332 -0.07332 -1.01 -0.13998 s -0.65332 -0.14666 -0.97998 -0.24 s -0.67666 -0.21334 -1.05 -0.36 l 0.68 -2.8 c 0.54666 0.14666 1.0833 0.27666 1.61 0.39 s 1.0633 0.17 1.61 0.17 c 0.73334 0 1.2933 -0.09666 1.68 -0.29 s 0.61332 -0.56334 0.67998 -1.11 c 0.02666 -0.28 -0.0066796 -0.51334 -0.10002 -0.7 s -0.22668 -0.34332 -0.40002 -0.46998 s -0.36668 -0.23 -0.58002 -0.31 l -0.64 -0.24 z M 12.02 9.56 l 3.04 -0.000039062 l 0 5.44 c 0 0.46666 0.04 0.85666 0.12 1.17 s 0.2 0.56 0.36 0.74 s 0.35666 0.30666 0.59 0.38 s 0.51 0.11 0.83 0.11 c 0.38666 0 0.73332 -0.02 1.04 -0.06 l -0.04 -0.36 l 0 -7.42 l 3.04 0 l 0 9.88 c -0.49334 0.17334 -1.0833 0.32668 -1.77 0.46002 s -1.39 0.2 -2.11 0.2 c -0.68 0 -1.33 -0.05334 -1.95 -0.16 s -1.1633 -0.33332 -1.63 -0.67998 s -0.83666 -0.85 -1.11 -1.51 s -0.41 -1.55 -0.41 -2.67 l 0 -5.52 z M 23.52 12.04 l -1.66 0 l 1.32 -2.48 l 2.9 0 l 0.24 1.12 c 0.30666 -0.34666 0.68332 -0.63 1.13 -0.85 s 0.96332 -0.33 1.55 -0.33 c 1.3733 0 2.3534 0.5 2.94 1.5 c 0.33334 -0.46666 0.72668 -0.83332 1.18 -1.1 s 1.02 -0.4 1.7 -0.4 c 1.2 0 2.0766 0.31666 2.63 0.95 s 0.83 1.6433 0.83 3.03 l 0 6.52 l -3.04 0 l 0 -5.98 c 0 -0.64 -0.10334 -1.0933 -0.31 -1.36 s -0.56332 -0.4 -1.07 -0.4 c -0.21334 0 -0.41 0.02334 -0.59 0.07 s -0.33334 0.13332 -0.46 0.25998 s -0.22666 0.3 -0.3 0.52 s -0.11 0.51 -0.11 0.87 l 0 6.02 l -3.04 0 l 0 -6.02 c 0 -0.66666 -0.11666 -1.12 -0.35 -1.36 s -0.55668 -0.36 -0.97002 -0.36 c -0.2 0 -0.38666 0.02 -0.56 0.06 s -0.33 0.12 -0.47 0.24 s -0.25 0.29334 -0.33 0.52 s -0.12 0.52666 -0.12 0.9 l 0 6.02 l -3.04 0 l 0 -7.96 z M 44.32 17.38 l 4.58 0 l 0 2.62 l -8.46 0 l 0 -2.26 l 0.33 -0.37 l 0.84 -0.94 l 1.13 -1.26 l 1.2 -1.33 l 1.04 -1.16 l 0.68 -0.74 l -0.32 0.1 l -2.32 0 l 0 1.1 l -2.5 -0.76 l 0 -2.82 l 8.26 0 l 0 2.36 z" stroke-linecap="round"/>
</g>
</g>
</g>
<g transform="matrix(1.4115 0 0 1.4115 500.001 444.876)" id="518447">
<g style="" vector-effect="non-scaling-stroke">
		<g transform="matrix(1 0 0 1 0.5 0)" id="Education">
<path style="stroke: none; stroke-width: 1; stroke-dasharray: none; stroke-linecap: butt; stroke-dashoffset: 0; stroke-linejoin: miter; stroke-miterlimit: 4; is-custom-font: none; font-file-url: none; fill: rgb(32,52,66); fill-rule: nonzero; opacity: 1;" transform=" translate(-24.5, -24)" d="M 24.5 34 h 0 C 15.94 34 9 30.154 9 24 V 14 H 40 V 24 C 40 29.171 33.06 34 24.5 34 Z" stroke-linecap="round"/>
</g>
		<g transform="matrix(1 0 0 1 0.0022 -11.657)" id="Education">
<path style="stroke: none; stroke-width: 1; stroke-dasharray: none; stroke-linecap: butt; stroke-dashoffset: 0; stroke-linejoin: miter; stroke-miterlimit: 4; is-custom-font: none; font-file-url: none; fill: rgb(76,86,101); fill-rule: nonzero; opacity: 1;" transform=" translate(-24.0022, -12.343)" d="M 46.171 9.991 L 27.3 0.764 a 7.518 7.518 0 0 0 -6.6 0 L 1.829 9.991 a 3.26 3.26 0 0 0 0.15 5.927 L 4.5 17 l 16.543 7.079 a 7.517 7.517 0 0 0 5.914 0 L 43.5 17 l 2.521 -1.078 A 3.26 3.26 0 0 0 46.171 9.991 Z" stroke-linecap="round"/>
</g>
		<g transform="matrix(1 0 0 1 8.6871 0.1246)" id="Education">
<path style="stroke: none; stroke-width: 1; stroke-dasharray: none; stroke-linecap: butt; stroke-dashoffset: 0; stroke-linejoin: miter; stroke-miterlimit: 4; is-custom-font: none; font-file-url: none; fill: rgb(236,240,241); fill-rule: nonzero; opacity: 1;" transform=" translate(-32.6872, -24.1247)" d="M 40 38 a 1 1 0 0 1 -1 -1 V 19.361 L 24.918 12.14 a 1 1 0 1 1 0.914 -1.78 L 41 18.139 V 37 A 1 1 0 0 1 40 38 Z" stroke-linecap="round"/>
</g>
		<g transform="matrix(1 0 0 1 0.5 -13)" id="Education">
<ellipse style="stroke: none; stroke-width: 1; stroke-dasharray: none; stroke-linecap: butt; stroke-dashoffset: 0; stroke-linejoin: miter; stroke-miterlimit: 4; is-custom-font: none; font-file-url: none; fill: rgb(32,52,66); fill-rule: nonzero; opacity: 1;" cx="0" cy="0" rx="4.5" ry="3"/>
</g>
		<g transform="matrix(1 0 0 1 16 15)" id="Education">
<circle style="stroke: none; stroke-width: 1; stroke-dasharray: none; stroke-linecap: butt; stroke-dashoffset: 0; stroke-linejoin: miter; stroke-miterlimit: 4; is-custom-font: none; font-file-url: none; fill: rgb(250,206,83); fill-rule: nonzero; opacity: 1;" cx="0" cy="0" r="4"/>
</g>
</g>
</g>
</svg>